# xmcd
#
# Track frame offsets:
#	150
#	17371
#	32605
#	44132
#	60131
#	71603
#	87408
#	102929
#	121960
#	144260
#	161322
#	176752
#	191020
#	208039
#	225468
#	241435
#	251675
#	261531
#	272887
#	293714
#	312140
#
# Disc length: 4409 seconds
#
# Revision: 0
# Processed by: cddbd v1.5.2PL0 Copyright (c) Steve Scherf et al.
# Submitted via: audiograbber 1.83.01
#
DISCID=29113715
DTITLE=Various Artist - CDX Volume 1033 (October 28, 2013)
DYEAR=2013
DGENRE=Country
TTITLE0=Vince Vance and The Valiants - All I Want For Christmas Is You
TTITLE1=Robertsons - Christmas Cookies (Phil Robertson with George Strait)
TTITLE2=Robertsons - Duck The Halls 
TTITLE3=Robertsons - Hairy Christmas (Willie Robertson with Luke Bryan)
TTITLE4=JT Hodges - Joy To The World
TTITLE5=Robertsons - Ragin' Cajun Redneck Christmas
TTITLE6=Kacey Jones - Christmas In Rehab
TTITLE7=Kacey Jones - I'm Down to My Christmas Underwear
TTITLE8=Wayne Warner - The Journey
TTITLE9=Kelly Parkes - I Believe
TTITLE10=Tobi Gordon - Silent Night
TTITLE11=Mike Aiken - Almost Christmas
TTITLE12=Sarabeth - Grinch Please
TTITLE13=Samantha Landrum - Light A Candle
TTITLE14=Jeff Maddox - Merry Margarita
TTITLE15=Santa Claus - On The Throne Again 
TTITLE16=Smokey River Boys - Ring Those Joy Bells of Christmas
TTITLE17=Courtney Rau - Santa Claus Is Coming To Town
TTITLE18=Doug Newnum and SOS Renewal - Where Would I Be 
TTITLE19=Nancy Hays and The Heffernans - There's A Light In The Winter [Radio Ver
TTITLE19=sion]
TTITLE20=Nancy Hays and The Heffernans - There's A Light In The Winter [Dance Ver
TTITLE20=sion]
EXTD=
EXTT0=
EXTT1=
EXTT2=
EXTT3=
EXTT4=
EXTT5=
EXTT6=
EXTT7=
EXTT8=
EXTT9=
EXTT10=
EXTT11=
EXTT12=
EXTT13=
EXTT14=
EXTT15=
EXTT16=
EXTT17=
EXTT18=
EXTT19=
EXTT20=
PLAYORDER=
